<svg version="1.1" preserveAspectRatio="xMidYMid meet" id="Layer_1" xmlns="http://www.w3.org/2000/svg" xmlns:xlink="http://www.w3.org/1999/xlink" x="0px" y="0px" viewBox="0 0 1506 547" style="enable-background:new 0 0 1506 547;" xml:space="preserve">
          <style type="text/css">
            .st0{fill:#F2F2F2;}
          </style>
          <g>
            <g id="ARC_74_">
              <g>
                <g>
                  <g>
                    <g>
                      <path class="st0" d="M268.28,222.61v106.71c0,4.72-3.67,8.62-8.38,8.91l-91.3,5.54l51.98-30.01c2.02-1.17,3.65-2.9,4.69-4.99
                        L268.28,222.61z"></path>
                    </g>
                    <g>
                      <path class="st0" d="M261.01,205.09c4.08,2.36,5.63,7.49,3.52,11.71l-40.86,81.84v-60.02c0-2.33-0.68-4.61-1.97-6.56
                        l-53.1-80.32L261.01,205.09z"></path>
                    </g>
                    <g>
                      <path class="st0" d="M256.75,344.37l-92.41,53.35c-4.08,2.36-9.3,1.13-11.9-2.8l-50.45-76.3l51.98,30.01
                        c2.02,1.17,4.34,1.71,6.67,1.57L256.75,344.37z"></path>
                    </g>
                    <g>
                      <path class="st0" d="M161.7,152.09l50.45,76.3l-51.98-30.01c-2.02-1.17-4.34-1.71-6.67-1.57l-96.11,5.83l92.41-53.35
                        C153.88,146.92,159.09,148.15,161.7,152.09z"></path>
                    </g>
                    <g>
                      <path class="st0" d="M92.43,314.94l53.1,80.32l-92.41-53.35c-4.08-2.36-5.63-7.49-3.52-11.71l40.86-81.84v60.02
                        C90.46,310.71,91.14,312.99,92.43,314.94z"></path>
                    </g>
                    <g>
                      <path class="st0" d="M145.53,203.25l-51.98,30.01c-2.02,1.17-3.65,2.9-4.69,4.99l-43.01,86.15V217.69
                        c0-4.72,3.67-8.62,8.38-8.9L145.53,203.25z"></path>
                    </g>
                  </g>
                </g>
              </g>
            </g>
            <g id="XMLID_2_">
              <g>
                <path class="st0" d="M1463.51,323.77c0.15,0.12,0.24,0.3,0.24,0.49c0,0.35-0.31,0.64-0.69,0.64h-53.38l-42.78-35.77
                  c-0.26-0.22-0.66-0.22-0.93,0l-42.9,35.77h-52.8c-0.2,0-0.39-0.08-0.52-0.22c-0.25-0.27-0.22-0.67,0.07-0.9l62.15-49.64
                  c0.29-0.23,0.32-0.63,0.07-0.9c-0.02-0.02-0.04-0.04-0.06-0.06l-58.53-49.64c-0.14-0.12-0.22-0.29-0.22-0.47
                  c0-0.35,0.31-0.64,0.69-0.64h52.53l39.52,35.15c0.26,0.23,0.68,0.24,0.95,0.01l40.85-35.16h52.2c0.2,0,0.38,0.08,0.52,0.21
                  c0.26,0.26,0.23,0.67-0.05,0.9l-59.51,49.63c-0.29,0.24-0.31,0.64-0.05,0.91c0.02,0.02,0.04,0.04,0.06,0.06L1463.51,323.77z"></path>
                <path class="st0" d="M1247.59,223.07v101.19c0,0.35-0.31,0.64-0.69,0.64h-38.88c-0.38,0-0.69-0.29-0.69-0.64V223.07
                  c0-0.35,0.31-0.64,0.69-0.64h38.88C1247.28,222.42,1247.59,222.71,1247.59,223.07z"></path>
                <path class="st0" d="M1175,223.07v101.19c0,0.35-0.31,0.64-0.69,0.64h-37.3c-0.38,0-0.69-0.29-0.69-0.64v-74.9
                  c0-0.36-0.31-0.64-0.69-0.64c-0.23,0-0.44,0.1-0.57,0.28l-55.23,75.62c-0.13,0.17-0.34,0.28-0.57,0.28h-30.89l-53.89-74.98
                  c-0.21-0.29-0.64-0.37-0.96-0.18c-0.19,0.12-0.31,0.32-0.31,0.53v73.99c0,0.35-0.31,0.64-0.69,0.64h-37.47
                  c-0.38,0-0.69-0.29-0.69-0.64V223.07c0-0.35,0.31-0.64,0.69-0.64h62.61c0.23,0,0.45,0.11,0.58,0.29l45.87,65.2
                  c0.21,0.3,0.64,0.38,0.96,0.19c0.08-0.05,0.15-0.11,0.2-0.18l46.03-65.21c0.13-0.18,0.35-0.29,0.58-0.29h62.45
                  C1174.69,222.42,1175,222.71,1175,223.07z"></path>
                <path class="st0" d="M921.52,223.07v101.19c0,0.35-0.31,0.64-0.69,0.64h-39.65c-0.38,0-0.69-0.29-0.69-0.64V223.07
                  c0-0.35,0.31-0.64,0.69-0.64h39.65C921.21,222.42,921.52,222.71,921.52,223.07z"></path>
                <path class="st0" d="M852.16,301.35v22.91c0,0.35-0.31,0.64-0.69,0.64H722.9c-0.38,0-0.69-0.29-0.69-0.64V223.07
                  c0-0.35,0.31-0.64,0.69-0.64h38.36c0.38,0,0.69,0.29,0.69,0.64v77c0,0.36,0.31,0.64,0.69,0.64h88.83
                  C851.86,300.71,852.16,300.99,852.16,301.35z"></path>
                <path class="st0" d="M692.81,301.35v22.91c0,0.35-0.31,0.64-0.69,0.64H548.4c-0.38,0-0.69-0.29-0.69-0.64V222.87v0
                  c0-0.35,0.31-0.64,0.69-0.64l143.72,0.19c0.38,0,0.69,0.29,0.69,0.64v22.75c0,0.35-0.31,0.64-0.69,0.64H588.86
                  c-0.38,0-0.69,0.29-0.69,0.64v15.58c0,0.35,0.31,0.64,0.69,0.64h95.87c0.38,0,0.69,0.29,0.69,0.64v19.07
                  c0,0.36-0.31,0.64-0.69,0.64h-95.87c-0.38,0-0.69,0.29-0.69,0.64v15.77c0,0.36,0.31,0.64,0.69,0.64h103.26
                  C692.5,300.71,692.81,300.99,692.81,301.35z"></path>
                <path class="st0" d="M514.69,222.87v101.39c0,0.35-0.31,0.64-0.69,0.64h-39.1c-0.38,0-0.69-0.29-0.69-0.64V286.5
                  c0-0.35-0.31-0.64-0.69-0.64h-87.5c-0.38,0-0.69,0.29-0.69,0.64v37.76c0,0.35-0.31,0.64-0.69,0.64h-39.34
                  c-0.38,0-0.69-0.29-0.69-0.64V222.87c0-0.35,0.31-0.64,0.69-0.64h39.34c0.38,0,0.69,0.29,0.69,0.64v36.03
                  c0,0.36,0.31,0.64,0.69,0.64h87.5c0.38,0,0.69-0.29,0.69-0.64v-36.03c0-0.35,0.31-0.64,0.69-0.64H514
                  C514.38,222.23,514.69,222.52,514.69,222.87z"></path>
              </g>
              <g>
                <line class="st0" x1="474.9" y1="324.9" x2="514" y2="324.9"></line>
                <line class="st0" x1="474.2" y1="286.5" x2="474.2" y2="324.26"></line>
                <line class="st0" x1="386.01" y1="285.86" x2="473.51" y2="285.86"></line>
                <line class="st0" x1="385.32" y1="324.26" x2="385.32" y2="286.5"></line>
                <line class="st0" x1="345.29" y1="324.9" x2="384.63" y2="324.9"></line>
                <line class="st0" x1="344.6" y1="222.87" x2="344.6" y2="324.26"></line>
                <line class="st0" x1="384.63" y1="222.23" x2="345.29" y2="222.23"></line>
                <line class="st0" x1="385.32" y1="258.9" x2="385.32" y2="222.87"></line>
                <line class="st0" x1="473.51" y1="259.55" x2="386.01" y2="259.55"></line>
                <line class="st0" x1="474.2" y1="222.87" x2="474.2" y2="258.9"></line>
                <line class="st0" x1="514" y1="222.23" x2="474.9" y2="222.23"></line>
                <line class="st0" x1="514.69" y1="324.26" x2="514.69" y2="222.87"></line>
                <line class="st0" x1="692.81" y1="245.81" x2="692.81" y2="223.07"></line>
                <line class="st0" x1="588.86" y1="246.46" x2="692.12" y2="246.46"></line>
                <line class="st0" x1="588.17" y1="262.67" x2="588.17" y2="247.09"></line>
                <line class="st0" x1="684.73" y1="263.31" x2="588.86" y2="263.31"></line>
                <line class="st0" x1="685.42" y1="283.02" x2="685.42" y2="263.95"></line>
                <line class="st0" x1="588.86" y1="283.66" x2="684.73" y2="283.66"></line>
                <line class="st0" x1="588.17" y1="300.07" x2="588.17" y2="284.29"></line>
                <line class="st0" x1="692.12" y1="300.71" x2="588.86" y2="300.71"></line>
                <line class="st0" x1="692.81" y1="324.26" x2="692.81" y2="301.35"></line>
                <line class="st0" x1="548.4" y1="324.9" x2="692.12" y2="324.9"></line>
                <line class="st0" x1="547.71" y1="222.87" x2="547.71" y2="324.26"></line>
                <line class="st0" x1="692.12" y1="222.42" x2="548.4" y2="222.23"></line>
                <line class="st0" x1="761.95" y1="300.07" x2="761.95" y2="223.07"></line>
                <line class="st0" x1="851.47" y1="300.71" x2="762.64" y2="300.71"></line>
                <line class="st0" x1="852.16" y1="324.26" x2="852.16" y2="301.35"></line>
                <line class="st0" x1="722.9" y1="324.9" x2="851.47" y2="324.9"></line>
                <line class="st0" x1="722.21" y1="223.07" x2="722.21" y2="324.26"></line>
                <line class="st0" x1="761.26" y1="222.42" x2="722.9" y2="222.42"></line>
                <line class="st0" x1="881.18" y1="324.9" x2="920.83" y2="324.9"></line>
                <line class="st0" x1="880.49" y1="223.07" x2="880.49" y2="324.26"></line>
                <line class="st0" x1="920.83" y1="222.42" x2="881.18" y2="222.42"></line>
                <line class="st0" x1="921.52" y1="324.26" x2="921.52" y2="223.07"></line>
                <line class="st0" x1="1048.73" y1="324.9" x2="1079.25" y2="324.9"></line>
                <line class="st0" x1="994.47" y1="249.91" x2="1048.15" y2="324.61"></line>
                <path class="st0" d="M993.21,250.27"></path>
                <path class="st0" d="M993.21,324.26"></path>
                <line class="st0" x1="955.05" y1="324.9" x2="992.52" y2="324.9"></line>
                <line class="st0" x1="954.36" y1="223.07" x2="954.36" y2="324.26"></line>
                <line class="st0" x1="1017.66" y1="222.42" x2="955.05" y2="222.42"></line>
                <path class="st0" d="M1018.23,222.72"></path>
                <path class="st0" d="M1064.1,287.92"></path>
                <line class="st0" x1="1111.28" y1="222.71" x2="1065.25" y2="287.92"></line>
                <line class="st0" x1="1174.31" y1="222.42" x2="1111.86" y2="222.42"></line>
                <line class="st0" x1="1175" y1="324.26" x2="1175" y2="223.07"></line>
                <line class="st0" x1="1137.01" y1="324.9" x2="1174.31" y2="324.9"></line>
                <line class="st0" x1="1136.32" y1="249.36" x2="1136.32" y2="324.26"></line>
                <line class="st0" x1="1079.82" y1="324.62" x2="1135.05" y2="249"></line>
                <line class="st0" x1="1246.9" y1="222.42" x2="1208.02" y2="222.42"></line>
                <line class="st0" x1="1247.59" y1="324.26" x2="1247.59" y2="223.07"></line>
                <line class="st0" x1="1208.02" y1="324.9" x2="1246.9" y2="324.9"></line>
                <line class="st0" x1="1207.33" y1="223.07" x2="1207.33" y2="324.26"></line>
                <line class="st0" x1="1273.44" y1="223.54" x2="1331.97" y2="273.18"></line>
                <line class="st0" x1="1326.16" y1="222.42" x2="1273.9" y2="222.42"></line>
                <line class="st0" x1="1365.96" y1="257.58" x2="1326.64" y2="222.61"></line>
                <line class="st0" x1="1407.56" y1="222.6" x2="1366.91" y2="257.58"></line>
                <line class="st0" x1="1459.95" y1="222.42" x2="1408.03" y2="222.42"></line>
                <line class="st0" x1="1400.9" y1="273.17" x2="1460.42" y2="223.54"></line>
                <line class="st0" x1="1463.51" y1="323.77" x2="1400.91" y2="274.13"></line>
                <line class="st0" x1="1409.93" y1="324.9" x2="1463.06" y2="324.9"></line>
                <line class="st0" x1="1366.89" y1="289.12" x2="1409.47" y2="324.73"></line>
                <line class="st0" x1="1270.26" y1="324.9" x2="1322.8" y2="324.9"></line>
                <line class="st0" x1="1331.96" y1="274.13" x2="1269.81" y2="323.77"></line>
                <line class="st0" x1="1323.27" y1="324.73" x2="1365.97" y2="289.12"></line>
                <path class="st0" d="M474.2,324.26c0,0.35,0.31,0.64,0.69,0.64"></path>
                <path class="st0" d="M474.2,286.5c0-0.35-0.31-0.64-0.69-0.64"></path>
                <path class="st0" d="M386.01,285.86c-0.38,0-0.69,0.29-0.69,0.64"></path>
                <path class="st0" d="M384.63,324.9c0.38,0,0.69-0.29,0.69-0.64"></path>
                <path class="st0" d="M344.6,324.26c0,0.35,0.31,0.64,0.69,0.64"></path>
                <path class="st0" d="M345.29,222.23c-0.38,0-0.69,0.29-0.69,0.64"></path>
                <path class="st0" d="M385.32,222.87c0-0.35-0.31-0.64-0.69-0.64"></path>
                <path class="st0" d="M385.32,258.9c0,0.36,0.31,0.64,0.69,0.64"></path>
                <path class="st0" d="M473.51,259.55c0.38,0,0.69-0.29,0.69-0.64"></path>
                <path class="st0" d="M474.9,222.23c-0.38,0-0.69,0.29-0.69,0.64"></path>
                <path class="st0" d="M514.69,222.87c0-0.35-0.31-0.64-0.69-0.64"></path>
                <path class="st0" d="M514,324.9c0.38,0,0.69-0.29,0.69-0.64"></path>
                <path class="st0" d="M692.12,246.46c0.38,0,0.69-0.29,0.69-0.64"></path>
                <path class="st0" d="M588.86,246.46c-0.38,0-0.69,0.29-0.69,0.64"></path>
                <path class="st0" d="M588.17,262.67c0,0.35,0.31,0.64,0.69,0.64"></path>
                <path class="st0" d="M685.42,263.95c0-0.36-0.31-0.64-0.69-0.64"></path>
                <path class="st0" d="M684.73,283.66c0.38,0,0.69-0.29,0.69-0.64"></path>
                <path class="st0" d="M588.86,283.66c-0.38,0-0.69,0.29-0.69,0.64"></path>
                <path class="st0" d="M588.17,300.07c0,0.36,0.31,0.64,0.69,0.64"></path>
                <path class="st0" d="M692.81,301.35c0-0.36-0.31-0.64-0.69-0.64"></path>
                <path class="st0" d="M692.12,324.9c0.38,0,0.69-0.29,0.69-0.64"></path>
                <path class="st0" d="M547.71,324.26c0,0.35,0.31,0.64,0.69,0.64"></path>
                <path class="st0" d="M548.4,222.23c-0.38,0-0.69,0.29-0.69,0.64"></path>
                <path class="st0" d="M692.81,223.07c0-0.36-0.31-0.64-0.69-0.64"></path>
                <path class="st0" d="M761.95,300.07c0,0.36,0.31,0.64,0.69,0.64"></path>
                <path class="st0" d="M852.16,301.35c0-0.36-0.31-0.64-0.69-0.64"></path>
                <path class="st0" d="M851.47,324.9c0.38,0,0.69-0.29,0.69-0.64"></path>
                <path class="st0" d="M722.21,324.26c0,0.35,0.31,0.64,0.69,0.64"></path>
                <path class="st0" d="M722.9,222.42c-0.38,0-0.69,0.29-0.69,0.64"></path>
                <path class="st0" d="M761.95,223.07c0-0.35-0.31-0.64-0.69-0.64"></path>
                <path class="st0" d="M880.49,324.26c0,0.35,0.31,0.64,0.69,0.64"></path>
                <path class="st0" d="M881.18,222.42c-0.38,0-0.69,0.29-0.69,0.64"></path>
                <path class="st0" d="M921.52,223.07c0-0.35-0.31-0.64-0.69-0.64"></path>
                <path class="st0" d="M920.83,324.9c0.38,0,0.69-0.29,0.69-0.64"></path>
                <path class="st0" d="M1048.15,324.61c0.13,0.18,0.34,0.29,0.57,0.29"></path>
                <path class="st0" d="M994.47,249.91c-0.21-0.29-0.64-0.37-0.96-0.18c-0.19,0.12-0.31,0.32-0.31,0.53"></path>
                <path class="st0" d="M992.52,324.9c0.38,0,0.69-0.29,0.69-0.64"></path>
                <path class="st0" d="M954.36,324.26c0,0.35,0.31,0.64,0.69,0.64"></path>
                <path class="st0" d="M955.05,222.42c-0.38,0-0.69,0.29-0.69,0.64"></path>
                <path class="st0" d="M1018.23,222.72c-0.12-0.18-0.34-0.29-0.58-0.29"></path>
                <path class="st0" d="M1064.1,287.92c0.21,0.3,0.64,0.38,0.96,0.19c0.08-0.05,0.15-0.11,0.2-0.18"></path>
                <path class="st0" d="M1111.86,222.42c-0.23,0-0.45,0.11-0.58,0.29"></path>
                <path class="st0" d="M1175,223.07c0-0.35-0.31-0.64-0.69-0.64"></path>
                <path class="st0" d="M1174.31,324.9c0.38,0,0.69-0.29,0.69-0.64"></path>
                <path class="st0" d="M1136.32,324.26c0,0.35,0.31,0.64,0.69,0.64"></path>
                <path class="st0" d="M1136.32,249.36c0-0.36-0.31-0.64-0.69-0.64c-0.23,0-0.44,0.1-0.57,0.28"></path>
                <path class="st0" d="M1079.25,324.9c0.23,0,0.44-0.11,0.57-0.28"></path>
                <path class="st0" d="M1247.59,223.07c0-0.35-0.31-0.64-0.69-0.64"></path>
                <path class="st0" d="M1246.9,324.9c0.38,0,0.69-0.29,0.69-0.64"></path>
                <path class="st0" d="M1207.33,324.26c0,0.35,0.31,0.64,0.69,0.64"></path>
                <path class="st0" d="M1208.02,222.42c-0.38,0-0.69,0.29-0.69,0.64"></path>
                <path class="st0" d="M1273.9,222.42c-0.38,0-0.69,0.29-0.69,0.64c0,0.18,0.08,0.35,0.22,0.47"></path>
                <path class="st0" d="M1326.64,222.61c-0.13-0.12-0.3-0.18-0.48-0.18"></path>
                <path class="st0" d="M1365.96,257.58c0.26,0.23,0.68,0.24,0.95,0.01"></path>
                <path class="st0" d="M1408.03,222.42c-0.17,0-0.34,0.06-0.47,0.17"></path>
                <path class="st0" d="M1460.42,223.54c0.28-0.23,0.31-0.64,0.05-0.9c-0.13-0.14-0.32-0.21-0.52-0.21"></path>
                <path class="st0" d="M1400.9,273.17c-0.29,0.24-0.31,0.64-0.05,0.91c0.02,0.02,0.04,0.04,0.06,0.06"></path>
                <path class="st0" d="M1463.06,324.9c0.38,0,0.69-0.29,0.69-0.64c0-0.19-0.09-0.37-0.24-0.49"></path>
                <path class="st0" d="M1409.47,324.73c0.13,0.11,0.29,0.17,0.46,0.17"></path>
                <path class="st0" d="M1366.89,289.12c-0.26-0.22-0.66-0.22-0.93,0"></path>
                <path class="st0" d="M1322.8,324.9c0.17,0,0.33-0.06,0.46-0.17"></path>
                <path class="st0" d="M1269.81,323.77c-0.29,0.23-0.32,0.63-0.07,0.9c0.13,0.14,0.32,0.22,0.52,0.22"></path>
                <path class="st0" d="M1331.96,274.13c0.29-0.23,0.32-0.63,0.07-0.9c-0.02-0.02-0.04-0.04-0.06-0.06"></path>
              </g>
            </g>
          </g>
          </svg>